# xmcd
#
# Track frame offsets:
#	150
#	11520
#	28267
#	42032
#	53325
#	71495
#	87325
#	105245
#	119920
#	137462
#
# Disc length: 2104 seconds
#
# Revision: 0
# Processed by: cddbd v1.5.2PL0 Copyright (c) Steve Scherf et al.
# Submitted via: EasyCDDAExtractor 10.0.2.1
#
DISCID=7908360a
DTITLE=Mark Allen - The Call
DYEAR=1999
DGENRE=Gospel
TTITLE0=The Book Is Right
TTITLE1=The Call
TTITLE2=By My Spirit
TTITLE3=A Way Out Of This World
TTITLE4=I Sought The Lord
TTITLE5=Fear Not
TTITLE6=We Will Stand
TTITLE7=The Storm
TTITLE8=The Mystery
TTITLE9=Looking Back
EXTD=
EXTT0=
EXTT1=
EXTT2=
EXTT3=
EXTT4=
EXTT5=
EXTT6=
EXTT7=
EXTT8=
EXTT9=
PLAYORDER=
